<?xml version="1.0" standalone="no"?>
<!DOCTYPE svg PUBLIC "-//W3C//DTD SVG 20010904//EN"
 "http://www.w3.org/TR/2001/REC-SVG-20010904/DTD/svg10.dtd">
<svg version="1.0" xmlns="http://www.w3.org/2000/svg"
 width="512.000000pt" height="512.000000pt" viewBox="0 0 512.000000 512.000000"
 preserveAspectRatio="xMidYMid meet">

<g transform="translate(0.000000,512.000000) scale(0.100000,-0.100000)"
fill="#000000" stroke="none">
<path d="M2320 5105 c-624 -77 -1159 -424 -1496 -968 -200 -323 -309 -746
-290 -1132 25 -537 247 -1019 637 -1389 l109 -103 -55 -100 c-60 -109 -68
-150 -35 -183 23 -23 68 -26 93 -8 9 7 37 51 63 98 25 47 49 89 54 93 4 5 35
-10 70 -32 166 -108 385 -202 591 -255 l126 -33 -251 -461 c-138 -254 -254
-462 -257 -462 -4 0 -57 74 -118 164 -62 90 -123 174 -136 186 -33 31 -90 38
-309 39 -162 1 -178 3 -172 18 4 9 51 99 106 200 55 100 100 192 100 203 0 31
-44 70 -78 70 -17 0 -37 -9 -49 -22 -11 -13 -70 -116 -131 -229 -122 -224
-130 -254 -92 -316 37 -62 61 -67 308 -73 l222 -5 124 -180 c71 -104 137 -190
156 -202 62 -43 147 -20 190 49 11 18 138 249 281 513 l261 480 218 0 218 0
262 -485 c145 -267 274 -500 287 -518 47 -63 124 -80 183 -40 19 13 85 99 156
203 l124 180 222 5 c247 6 271 11 308 73 42 68 40 73 -230 569 l-250 459 116
111 c182 176 321 363 424 574 75 152 91 203 74 242 -25 59 -104 56 -131 -6
-132 -300 -234 -460 -413 -646 -593 -617 -1537 -752 -2279 -326 -1060 608
-1272 2040 -432 2922 458 482 1124 686 1770 542 285 -64 568 -203 792 -390
505 -421 747 -1055 658 -1723 l-13 -94 28 -23 c34 -30 70 -30 100 -1 18 18 25
42 35 117 42 326 12 633 -90 934 -172 506 -553 938 -1034 1171 -350 169 -749
236 -1125 190z m1631 -4111 c126 -230 229 -422 229 -426 0 -5 -82 -8 -182 -9
-214 0 -269 -7 -303 -39 -13 -12 -74 -96 -136 -186 -61 -90 -114 -164 -118
-164 -3 0 -120 208 -258 462 l-251 463 127 31 c200 49 465 165 606 265 22 15
44 27 49 25 5 -1 112 -191 237 -422z"/>
<path d="M2333 4689 c-559 -81 -1051 -465 -1264 -989 -53 -131 -93 -281 -110
-415 -18 -138 -6 -394 25 -530 124 -556 528 -1010 1056 -1189 195 -65 289 -80
520 -80 175 0 220 3 310 23 650 139 1134 621 1271 1267 21 95 24 136 23 319 0
179 -3 225 -22 311 -149 684 -683 1186 -1367 1284 -84 12 -356 11 -442 -1z
m479 -158 c296 -51 552 -185 774 -406 217 -216 347 -453 411 -755 29 -134 26
-440 -5 -580 -65 -289 -192 -520 -402 -730 -214 -214 -461 -347 -757 -407
-133 -27 -434 -25 -565 5 -304 67 -566 214 -772 434 -182 192 -302 417 -363
678 -33 141 -42 389 -19 535 49 322 195 605 428 831 235 229 487 351 838 407
79 13 326 6 432 -12z"/>
<path d="M1342 3477 c-22 -23 -22 -27 -22 -386 l0 -362 25 -25 26 -26 162 4
c142 3 167 6 202 25 152 81 191 272 80 400 -31 36 -32 40 -19 65 40 76 25 180
-34 249 -58 67 -94 79 -258 79 -134 0 -142 -1 -162 -23z m303 -152 c27 -26 32
-70 12 -96 -22 -28 -55 -39 -121 -39 l-66 0 0 80 0 80 75 0 c67 0 79 -3 100
-25z m30 -297 c32 -14 55 -56 55 -99 0 -22 -10 -41 -34 -65 -34 -34 -34 -34
-130 -34 l-96 0 0 105 0 105 90 0 c49 0 101 -5 115 -12z"/>
<path d="M2055 3475 l-25 -24 0 -348 c0 -191 3 -358 6 -371 12 -43 50 -52 217
-52 141 0 157 2 181 21 34 27 36 77 3 107 -21 20 -34 22 -140 22 l-117 0 0 95
0 95 110 0 c97 0 112 2 130 20 25 25 26 71 1 101 -18 22 -28 24 -130 27 l-111
4 0 89 0 89 114 0 c99 0 117 3 140 21 36 28 36 80 0 108 -25 19 -40 21 -191
21 -161 0 -164 0 -188 -25z"/>
<path d="M2786 3485 c-62 -24 -106 -64 -132 -119 -28 -61 -30 -117 -5 -171 29
-63 69 -92 202 -146 166 -67 205 -107 163 -167 -51 -73 -172 -69 -276 8 -57
43 -65 46 -102 29 -32 -15 -50 -57 -37 -91 24 -63 159 -136 268 -145 104 -8
172 14 237 80 80 81 96 163 50 256 -32 63 -76 98 -182 141 -191 79 -200 85
-188 135 16 62 146 74 227 20 56 -36 95 -37 126 -1 12 15 23 35 23 45 0 32
-39 69 -106 102 -55 27 -79 33 -147 36 -55 2 -95 -2 -121 -12z"/>
<path d="M3302 3477 c-27 -29 -28 -67 -3 -98 16 -19 30 -24 90 -27 l71 -4 0
-300 c0 -243 3 -304 15 -327 24 -47 78 -56 113 -18 22 23 22 29 22 334 l0 311
76 4 c65 3 79 7 95 27 26 32 24 73 -4 99 -22 21 -31 22 -238 22 -212 0 -216 0
-237 -23z"/>
</g>
</svg>
