<?xml version="1.0" standalone="no"?>
<!DOCTYPE svg PUBLIC "-//W3C//DTD SVG 20010904//EN"
 "http://www.w3.org/TR/2001/REC-SVG-20010904/DTD/svg10.dtd">
<svg version="1.0" xmlns="http://www.w3.org/2000/svg"
 width="512.000000pt" height="512.000000pt" viewBox="0 0 512.000000 512.000000"
 preserveAspectRatio="xMidYMid meet">

<g transform="translate(0.000000,512.000000) scale(0.100000,-0.100000)"
fill="#000000" stroke="none">
<path d="M1890 5020 c-115 -16 -217 -57 -311 -125 -65 -49 -92 -81 -209 -254
-144 -214 -183 -242 -435 -310 -82 -23 -182 -57 -221 -76 -126 -61 -242 -189
-301 -330 -39 -94 -46 -157 -39 -365 10 -281 0 -312 -175 -530 -146 -182 -199
-306 -199 -470 0 -161 53 -289 191 -460 106 -133 113 -139 155 -140 38 0 84
42 84 77 0 35 -12 54 -111 177 -119 149 -143 205 -143 346 0 146 21 194 165
374 122 154 161 222 190 335 19 69 20 95 14 273 -8 225 -2 265 53 371 40 79
117 153 195 191 28 14 117 43 197 65 175 48 225 68 305 126 83 59 119 101 230
270 83 125 106 153 163 195 86 63 171 91 277 91 87 0 105 -4 308 -80 237 -88
343 -87 600 9 89 34 188 64 219 69 133 18 287 -31 380 -122 26 -25 86 -104
132 -176 101 -155 140 -199 229 -262 74 -52 144 -79 342 -134 76 -21 152 -49
184 -68 99 -59 181 -174 210 -292 9 -36 11 -105 6 -250 -6 -181 -5 -207 14
-276 29 -112 68 -182 183 -326 56 -70 115 -153 130 -183 60 -121 60 -279 0
-400 -15 -30 -74 -113 -130 -183 -115 -144 -154 -214 -183 -326 -19 -69 -20
-95 -14 -276 5 -145 3 -214 -6 -250 -29 -118 -111 -233 -210 -292 -32 -19
-108 -47 -184 -68 -198 -55 -268 -82 -342 -134 -89 -63 -128 -107 -229 -262
-46 -72 -106 -151 -132 -176 -93 -91 -247 -140 -380 -122 -31 5 -130 35 -219
69 -265 98 -361 98 -626 0 -89 -34 -188 -64 -219 -69 -123 -17 -247 18 -355
100 -40 30 -76 75 -148 185 -113 171 -148 211 -238 275 -74 52 -144 79 -342
134 -76 21 -152 49 -184 68 -131 79 -221 236 -221 389 0 74 -29 112 -85 112
-59 0 -85 -37 -85 -122 1 -223 143 -449 345 -548 38 -18 136 -52 216 -74 262
-71 295 -94 439 -310 114 -171 143 -206 209 -255 114 -83 244 -127 381 -128
106 0 158 12 340 81 131 50 154 56 241 60 104 5 77 12 381 -97 240 -86 476
-44 661 119 26 23 95 113 157 205 154 229 189 255 445 324 83 23 182 57 220
75 162 79 293 252 336 441 7 34 9 116 5 250 -10 287 0 318 175 535 144 179
199 311 199 472 -1 162 -54 287 -199 468 -175 218 -185 248 -175 535 6 211 2
253 -38 355 -56 142 -173 272 -302 335 -39 19 -138 53 -221 76 -256 69 -291
95 -445 324 -62 92 -131 182 -157 205 -185 163 -421 205 -661 119 -304 -109
-277 -102 -381 -97 -87 4 -110 10 -241 60 -201 76 -294 94 -410 78z"/>
<path d="M2328 4349 c-101 -13 -242 -46 -343 -80 -124 -40 -351 -156 -465
-236 -123 -87 -346 -310 -433 -433 -85 -121 -197 -344 -241 -480 -66 -207 -81
-308 -81 -560 0 -252 15 -353 81 -560 44 -136 156 -359 241 -480 88 -124 311
-346 431 -430 316 -221 660 -330 1042 -330 420 0 815 140 1135 401 138 112
336 333 350 390 8 31 -15 83 -40 93 -21 8 -59 8 -79 0 -9 -3 -45 -43 -80 -88
-146 -186 -366 -364 -580 -465 -254 -121 -482 -168 -768 -158 -425 15 -785
173 -1089 476 -237 238 -378 498 -451 834 -19 88 -22 132 -22 317 0 237 12
320 74 511 157 480 561 884 1038 1039 190 61 285 75 517 75 178 -1 225 -4 312
-23 335 -73 596 -214 834 -451 290 -291 457 -660 476 -1051 3 -67 11 -126 20
-142 23 -46 89 -53 131 -15 20 18 22 30 22 111 -1 327 -122 691 -330 988 -84
120 -306 343 -430 431 -194 136 -459 250 -696 298 -123 24 -455 35 -576 18z"/>
<path d="M1334 2980 c-53 -21 -54 -26 -54 -422 l0 -367 24 -27 c30 -36 86 -39
119 -6 21 22 22 31 27 253 l5 229 184 -246 c114 -151 194 -249 209 -255 30
-12 60 -4 90 24 l22 20 0 377 0 377 -25 23 c-34 32 -87 32 -118 2 -21 -22 -22
-30 -25 -253 l-3 -231 -185 246 c-197 263 -214 279 -270 256z"/>
<path d="M2181 2976 c-49 -27 -50 -37 -51 -414 0 -383 2 -396 55 -420 41 -19
547 -17 584 3 53 27 60 96 14 137 -17 15 -48 18 -249 20 l-229 3 -3 83 -3 82
123 0 c179 0 217 16 218 91 0 26 -7 42 -26 60 -24 23 -33 24 -170 27 l-145 4
3 81 3 82 229 3 c201 2 232 5 249 20 46 41 39 110 -14 137 -39 21 -551 21
-588 1z"/>
<path d="M3050 2983 c-8 -3 -25 -15 -37 -26 -31 -28 -30 -40 21 -440 48 -376
49 -381 120 -381 46 0 60 14 167 166 50 70 91 128 93 128 1 0 46 -63 100 -139
110 -157 134 -175 191 -148 22 11 36 26 43 49 6 18 30 189 53 381 l43 347 -20
27 c-38 51 -105 51 -138 1 -9 -14 -25 -109 -42 -248 -15 -124 -30 -228 -33
-232 -4 -4 -38 36 -76 89 -108 149 -137 148 -250 -10 l-70 -99 -31 247 c-25
202 -34 250 -50 265 -21 21 -61 32 -84 23z"/>
<path d="M4122 2015 c-27 -20 -52 -66 -52 -98 0 -31 33 -73 64 -81 53 -13 101
28 112 96 11 65 -71 120 -124 83z"/>
<path d="M1882 1740 c-27 -11 -51 -62 -44 -96 2 -13 16 -33 30 -44 24 -19 42
-20 692 -20 650 0 668 1 692 20 14 11 28 31 30 44 7 36 -17 85 -47 96 -34 13
-1321 12 -1353 0z"/>
</g>
</svg>
