<?xml version="1.0" standalone="no"?>
<!DOCTYPE svg PUBLIC "-//W3C//DTD SVG 20010904//EN"
 "http://www.w3.org/TR/2001/REC-SVG-20010904/DTD/svg10.dtd">
<svg version="1.0" xmlns="http://www.w3.org/2000/svg"
 width="512.000000pt" height="512.000000pt" viewBox="0 0 512.000000 512.000000"
 preserveAspectRatio="xMidYMid meet">

<g transform="translate(0.000000,512.000000) scale(0.100000,-0.100000)"
fill="#000000" stroke="none">
<path d="M3463 5106 c-22 -8 -56 -24 -75 -36 -57 -39 -658 -643 -679 -682 -22
-44 -25 -106 -5 -151 8 -18 162 -182 343 -364 356 -361 367 -370 483 -380 118
-11 237 53 295 158 27 49 30 63 30 144 0 86 -4 104 -43 177 -7 13 141 -42 197
-73 183 -103 323 -284 378 -489 24 -90 24 -291 -1 -379 -61 -223 -209 -404
-410 -501 -132 -63 -211 -80 -380 -80 l-136 0 0 223 0 222 -251 320 c-137 176
-267 337 -288 357 -21 20 -57 42 -79 47 -28 8 -356 11 -1084 9 l-1043 -3 -42
-25 c-31 -19 -109 -111 -304 -360 -144 -184 -265 -345 -270 -358 -13 -34 -11
-2675 2 -2732 13 -59 52 -108 103 -131 37 -17 69 -19 307 -19 246 0 269 1 290
19 32 26 32 86 0 112 -21 17 -44 19 -276 19 -217 0 -256 2 -269 16 -15 14 -16
144 -14 1317 l3 1302 557 3 557 2 3 -457 c3 -452 3 -458 25 -493 12 -20 40
-46 62 -58 40 -22 45 -23 340 -20 286 3 301 4 328 24 15 11 38 36 51 54 l22
33 0 458 0 459 560 0 560 0 0 -169 0 -169 -157 -4 c-132 -3 -166 -8 -204 -25
-145 -65 -219 -224 -175 -375 20 -69 88 -148 160 -186 48 -25 61 -26 214 -30
l162 -4 0 -827 c0 -630 -3 -830 -12 -839 -9 -9 -271 -12 -1119 -12 -1104 0
-1106 0 -1133 -21 -34 -27 -36 -77 -3 -107 l23 -22 1124 0 1124 0 44 21 c29
15 54 37 73 67 l29 46 0 847 0 846 173 6 c95 3 210 13 257 22 184 36 368 112
530 220 95 63 290 257 358 357 113 166 197 374 228 566 18 113 20 326 4 427
-25 158 -83 339 -123 383 -24 25 -63 29 -94 7 -35 -24 -36 -57 -3 -141 66
-173 94 -364 79 -552 -45 -588 -508 -1065 -1097 -1132 -58 -7 -230 -10 -429
-8 -317 3 -333 4 -359 24 -53 39 -69 71 -69 134 0 67 20 102 76 135 32 19 58
20 424 26 363 5 395 7 463 28 465 139 748 582 667 1045 -75 430 -418 737 -860
771 -83 7 -92 5 -117 -15 -22 -16 -28 -30 -28 -58 0 -33 8 -46 71 -107 39 -39
77 -84 85 -102 34 -78 6 -162 -66 -200 -54 -29 -96 -29 -147 0 -23 12 -177
160 -343 329 -229 233 -300 311 -296 325 11 33 608 621 648 638 53 21 95 19
143 -10 49 -28 75 -75 75 -135 0 -55 -10 -72 -96 -161 -64 -66 -74 -82 -74
-112 0 -56 34 -77 129 -77 234 0 501 -92 703 -242 44 -33 119 -99 168 -149 93
-95 117 -106 159 -71 11 9 24 31 27 48 5 28 -1 39 -54 101 -191 222 -506 397
-797 444 -44 7 -81 14 -83 15 -2 1 8 19 21 41 38 59 50 108 45 188 -13 197
-206 330 -395 271z m-1993 -1631 c0 -10 -92 -530 -94 -533 -2 -1 -238 -1 -525
0 l-522 3 192 245 c105 135 200 255 212 268 l20 22 359 0 c197 0 358 -2 358
-5z m510 -265 l46 -265 -245 -3 c-134 -1 -245 -1 -247 1 -2 2 17 123 43 270
l47 267 155 -2 155 -3 46 -265z m1042 0 l207 -265 -521 -3 c-287 -1 -523 0
-526 2 -5 6 -92 493 -92 519 0 16 22 17 362 15 l362 -3 208 -265z m-982 -860
l0 -440 -262 2 -263 3 -3 425 c-1 234 0 431 3 438 3 9 66 12 265 12 l260 0 0
-440z"/>
</g>
</svg>
